<?xml version="1.0" standalone="no"?>
<!DOCTYPE svg PUBLIC "-//W3C//DTD SVG 20010904//EN"
 "http://www.w3.org/TR/2001/REC-SVG-20010904/DTD/svg10.dtd">
<svg version="1.0" xmlns="http://www.w3.org/2000/svg"
 width="360.000000pt" height="252.000000pt" viewBox="0 0 360.000000 252.000000"
 preserveAspectRatio="xMidYMid meet">

<g transform="translate(0.000000,252.000000) scale(0.100000,-0.100000)"
fill="#000000" stroke="none">
<path d="M485 2510 c3 -5 8 -10 11 -10 2 0 4 5 4 10 0 6 -5 10 -11 10 -5 0 -7
-4 -4 -10z"/>
<path d="M1614 2473 c-6 -42 -5 -48 20 -65 17 -13 26 -29 26 -48 0 -16 4 -40
9 -54 7 -18 6 -28 -4 -36 -17 -14 -39 -3 -74 34 -32 34 -41 33 -89 -7 -39 -33
-45 -34 -144 -40 -101 -5 -104 -5 -149 24 -25 16 -50 29 -55 29 -5 0 -34 -16
-64 -35 -30 -19 -62 -35 -71 -35 -10 0 -38 16 -63 35 -26 19 -52 35 -59 35 -6
0 -32 -14 -56 -30 -51 -35 -54 -35 -71 -15 -9 11 -10 30 -5 63 4 26 8 67 9 92
1 41 -1 45 -24 48 -14 2 -47 -8 -77 -24 l-52 -29 -24 23 c-21 20 -86 47 -94
39 -1 -2 -3 -23 -4 -48 -2 -58 11 -121 28 -134 23 -18 31 -103 25 -296 l-5
-189 54 -50 c52 -48 54 -51 59 -114 3 -36 4 -70 2 -75 -5 -16 -30 -14 -98 8
-32 10 -104 26 -159 35 -55 10 -125 22 -155 27 -30 6 -99 9 -152 7 l-98 -3 0
-32 c0 -30 3 -33 29 -33 18 0 53 -18 97 -49 109 -78 122 -90 126 -114 2 -16
10 -22 30 -22 19 0 39 -15 77 -58 62 -71 100 -144 111 -211 5 -28 13 -69 19
-91 6 -22 11 -109 11 -192 0 -166 3 -172 53 -133 81 64 134 -18 146 -230 6
-103 6 -105 31 -108 19 -2 42 11 87 50 109 95 219 149 238 118 4 -6 9 -50 11
-98 5 -92 30 -152 66 -152 22 0 48 -38 48 -71 0 -41 35 -144 59 -174 11 -15
18 -31 15 -36 -3 -5 25 -9 61 -9 49 0 71 4 84 17 18 17 17 18 -40 19 -66 0
-98 18 -136 74 -26 37 -31 121 -11 164 11 26 80 66 113 66 17 0 17 1 -2 22
-31 34 -37 63 -36 168 l1 95 -8 -75 c-5 -41 -6 -102 -3 -136 6 -66 -6 -88 -53
-100 -34 -9 -64 1 -104 34 -41 35 -41 40 -21 277 19 219 3 356 -50 424 -23 29
-24 60 -3 68 11 4 30 -9 59 -40 24 -26 48 -47 54 -47 12 0 128 76 136 90 2 4
-14 10 -36 14 -43 7 -132 47 -161 74 -15 13 -20 13 -34 1 -15 -12 -16 -11 -10
9 5 16 3 22 -7 22 -9 0 -17 -5 -19 -11 -2 -6 -16 -11 -31 -11 -21 0 -25 -3
-17 -13 8 -9 8 -15 0 -20 -5 -3 -10 -1 -10 5 0 6 -4 9 -9 6 -5 -3 -12 1 -15
10 -3 8 -2 12 4 9 6 -3 13 1 16 9 3 9 14 16 23 16 10 0 12 3 5 8 -6 4 -14 17
-18 30 -4 12 -12 20 -17 17 -5 -4 -9 1 -9 10 0 9 -4 14 -8 11 -4 -2 -21 15
-37 39 -17 24 -46 53 -65 64 -19 11 -30 21 -23 21 16 0 145 -89 161 -112 7
-10 20 -18 28 -18 8 0 17 -7 20 -15 11 -28 21 -15 27 31 2 25 12 53 21 62 15
15 16 13 10 -30 -8 -61 0 -90 37 -132 48 -55 111 -71 224 -57 112 13 201 40
318 94 102 47 102 48 -15 93 -39 16 -68 33 -68 41 0 8 -4 12 -10 8 -21 -13
-218 105 -298 178 -26 24 -67 58 -92 75 -25 18 -63 54 -85 80 -22 27 -56 61
-77 78 -36 28 -49 54 -27 54 5 0 16 15 24 33 11 26 12 54 5 132 -15 165 -15
164 26 181 20 8 48 26 62 40 32 29 59 31 87 4 23 -22 157 -91 164 -84 2 2 -3
12 -11 21 -35 42 -34 46 12 39 72 -11 126 2 163 40 30 32 32 33 39 14 4 -12
31 -31 63 -45 66 -30 64 -29 93 -5 l22 18 -30 45 c-31 46 -32 77 -1 77 9 -1
25 -15 36 -32 14 -22 34 -35 66 -44 25 -8 54 -23 64 -34 25 -28 40 -25 55 10
7 16 21 32 32 36 15 4 17 9 9 17 -8 8 -19 3 -39 -16 -15 -15 -33 -27 -39 -27
-25 0 -123 51 -123 64 0 23 29 27 112 16 85 -12 182 0 215 27 16 12 15 13 -7
1 -17 -8 -70 -12 -167 -11 -154 1 -190 7 -172 26 8 9 53 11 155 9 102 -3 144
-1 144 7 0 7 -7 14 -15 16 -42 13 -49 18 -38 22 11 4 58 -7 97 -23 14 -5 17
-4 12 4 -4 7 -40 22 -81 33 -41 12 -72 26 -69 30 3 5 -71 9 -165 9 l-170 0 -7
-47z m319 11 c75 -13 33 -19 -108 -16 -92 2 -145 0 -145 -6 0 -6 14 -13 30
-17 17 -4 30 -11 30 -16 0 -19 -32 -21 -76 -4 -50 19 -56 44 -14 56 32 9 233
11 283 3z m-1360 -69 c15 -19 36 -35 45 -35 10 0 41 16 69 35 79 53 85 47 58
-55 -19 -72 -20 -170 -1 -170 7 0 44 23 81 50 37 28 71 50 75 48 5 -2 29 -22
54 -46 l46 -43 -1 -92 c-2 -182 -5 -194 -88 -283 -76 -81 -150 -207 -138 -237
3 -8 24 -18 46 -22 23 -4 41 -11 41 -15 0 -10 -98 -28 -123 -22 -28 7 -57 74
-57 132 0 44 5 56 29 81 20 19 40 29 60 29 35 0 47 17 67 95 15 54 18 151 7
258 -5 63 -7 67 -27 61 -12 -3 -35 -20 -53 -38 -31 -31 -32 -33 -39 -153 -6
-104 -4 -126 10 -147 21 -32 21 -31 -11 -61 -37 -33 -82 -33 -122 1 l-31 26 2
226 c2 247 -2 275 -39 340 -41 72 -10 100 40 37z m242 -315 c11 -17 7 -178 -5
-214 -13 -42 -20 -44 -46 -15 -14 15 -19 34 -17 70 1 45 19 143 30 162 6 10
31 9 38 -3z m189 -312 c13 -13 48 -50 76 -83 28 -33 64 -67 80 -75 27 -15 112
-88 124 -109 4 -6 -9 -17 -29 -25 -50 -21 -43 -46 17 -61 15 -4 34 -15 44 -26
20 -22 43 -24 113 -7 47 11 53 10 88 -14 21 -14 55 -32 76 -39 21 -8 43 -19
49 -26 13 -17 3 -43 -17 -43 -9 0 -34 -9 -56 -21 -61 -30 -167 -61 -190 -54
-11 4 -41 1 -67 -5 -62 -16 -119 -1 -167 44 -30 29 -35 40 -35 80 0 45 24 86
51 86 6 0 9 10 7 23 -5 35 -49 34 -90 -2 -40 -35 -85 -54 -101 -44 -35 21
-127 96 -127 102 0 5 6 14 14 20 29 24 26 51 -10 86 -37 37 -37 41 5 123 23
46 74 92 101 92 10 0 30 -10 44 -22z m-234 -323 c17 -9 30 -18 30 -21 0 -4
-59 23 -69 32 -10 9 13 3 39 -11z m528 -2 c-10 -2 -26 -2 -35 0 -10 3 -2 5 17
5 19 0 27 -2 18 -5z m110 -15 c8 -8 9 -15 1 -25 -18 -21 -45 -15 -63 12 -16
25 -16 25 17 25 18 0 38 -5 45 -12z m-272 -23 c-26 -19 -42 -19 -26 0 7 8 20
15 29 15 13 -1 13 -3 -3 -15z m-566 -80 c0 -5 -5 -3 -10 5 -5 8 -10 20 -10 25
0 6 5 3 10 -5 5 -8 10 -19 10 -25z m20 -30 c7 -9 8 -15 2 -15 -5 0 -12 7 -16
15 -3 8 -4 15 -2 15 2 0 9 -7 16 -15z m396 -263 c1 -47 7 -71 35 -120 18 -34
39 -62 46 -62 7 0 13 -4 13 -10 0 -18 -22 -11 -46 15 -13 14 -21 25 -18 25 3
0 -1 6 -8 14 -7 8 -16 12 -19 10 -4 -2 -9 13 -13 34 -3 20 -9 52 -12 69 -7 35
2 83 14 83 4 0 8 -26 8 -58z m-200 -10 c-3 -3 0 -12 6 -21 10 -13 10 -14 -2
-4 -16 15 -23 46 -8 37 5 -3 7 -9 4 -12z m-12 -41 c-3 -3 -10 -7 -15 -7 -5 -1
-15 -2 -21 -3 -8 -1 -2 -11 12 -23 15 -12 18 -19 8 -15 -9 3 -19 1 -21 -6 -2
-7 -8 -8 -13 -4 -5 4 -3 12 5 16 10 7 9 9 -3 14 -20 8 -10 35 12 33 10 0 16 5
14 13 -3 12 0 12 13 1 8 -7 13 -16 9 -19z m-115 -36 c-21 -35 -39 -53 -39 -39
0 8 49 74 55 74 2 0 -5 -16 -16 -35z m62 -32 c30 -18 46 -43 27 -43 -9 0 -9
-3 0 -12 7 -7 12 -17 12 -22 0 -6 -5 -4 -10 6 -6 9 -18 14 -29 11 -10 -2 -25
2 -32 10 -7 8 -23 12 -34 9 -11 -3 -16 -1 -12 4 8 9 12 10 38 13 6 0 9 10 6
21 -6 24 -3 25 34 3z m-91 -83 c-18 -16 -34 -30 -36 -30 -3 0 5 14 18 30 12
17 28 30 36 30 8 0 1 -13 -18 -30z"/>
<path d="M597 2316 c-6 -16 2 -28 14 -20 12 7 11 34 0 34 -5 0 -11 -6 -14 -14z"/>
<path d="M725 900 c3 -5 8 -10 11 -10 2 0 4 5 4 10 0 6 -5 10 -11 10 -5 0 -7
-4 -4 -10z"/>
<path d="M695 890 c3 -5 11 -10 16 -10 6 0 7 5 4 10 -3 6 -11 10 -16 10 -6 0
-7 -4 -4 -10z"/>
<path d="M1972 2247 c-7 -21 -10 -83 -8 -176 l4 -143 45 -45 c38 -38 47 -44
64 -34 37 19 45 181 13 252 -21 46 -28 40 -9 -8 13 -35 13 -167 -1 -193 -15
-28 -44 -25 -73 9 -21 26 -25 42 -31 149 -4 81 -3 137 5 167 14 54 8 69 -9 22z"/>
<path d="M2094 2255 c-9 -14 -14 -28 -11 -31 3 -3 8 4 12 16 4 12 16 25 28 30
17 7 18 9 5 9 -10 1 -25 -10 -34 -24z"/>
<path d="M2366 2255 c-53 -32 -159 -33 -195 -1 -23 20 -23 20 -13 1 6 -11 20
-30 32 -43 l22 -23 25 23 c23 22 25 22 37 6 19 -26 38 -22 89 17 25 19 51 35
56 35 6 0 33 -16 59 -34 26 -19 69 -44 95 -55 53 -23 59 -37 22 -51 -13 -5
-38 -22 -55 -38 -16 -16 -50 -42 -74 -57 -51 -32 -57 -51 -49 -142 7 -72 16
-77 83 -43 21 11 41 16 44 11 9 -14 -63 -68 -147 -111 -27 -13 -29 -13 -52 16
-13 17 -42 39 -64 49 -43 19 -50 29 -27 42 33 20 38 53 31 189 -4 74 -11 134
-15 134 -4 0 -16 -19 -28 -42 -26 -54 -34 -161 -16 -214 16 -48 8 -59 -86
-114 -105 -62 -118 -61 -197 4 -37 31 -73 56 -80 56 -17 0 -16 -30 3 -75 11
-27 12 -41 5 -48 -6 -6 -11 -28 -11 -49 0 -33 3 -38 28 -43 42 -9 77 -29 80
-47 2 -12 -3 -14 -22 -11 -41 8 -76 -5 -76 -27 0 -17 7 -20 39 -20 43 0 78
-23 83 -55 3 -17 -2 -19 -32 -16 -74 8 -84 6 -88 -13 -4 -16 0 -18 32 -12 49
9 81 -1 66 -19 -7 -8 -27 -19 -46 -25 -19 -6 -34 -18 -34 -26 0 -10 13 -6 49
14 236 133 326 179 391 203 118 42 172 58 218 65 27 4 46 13 49 23 2 9 13 35
24 59 17 38 21 41 39 32 20 -11 20 -11 1 -38 -26 -37 -30 -65 -9 -70 12 -2 15
2 11 16 -9 34 27 58 97 65 53 6 65 4 76 -11 18 -23 17 -8 -1 28 -18 36 -19 36
-56 9 -33 -23 -59 -21 -98 10 l-25 19 23 53 c35 81 42 269 10 269 -5 0 -17
-16 -26 -35 -19 -40 -28 -44 -36 -14 -13 49 61 152 133 183 20 9 27 15 17 16
-25 0 -56 -17 -97 -57 -22 -21 -45 -33 -63 -33 -28 0 -95 31 -152 69 -38 26
-51 26 -99 -4z m251 -189 c15 -8 37 -18 47 -21 17 -5 18 -12 13 -68 -5 -55
-38 -142 -96 -257 -5 -8 -19 -18 -32 -22 -13 -4 -69 -19 -124 -35 -63 -17
-149 -52 -232 -95 -73 -37 -139 -68 -147 -68 -8 0 -24 12 -36 27 -17 22 -20
36 -16 64 6 40 -11 63 -71 93 -37 19 -42 44 -14 70 18 16 21 16 51 1 43 -22
119 -12 186 26 63 36 79 36 129 -1 65 -48 80 -53 130 -46 90 14 197 131 137
150 -11 4 -32 1 -47 -6 -24 -11 -29 -10 -41 7 -8 10 -14 36 -14 57 0 34 5 41
54 77 30 23 57 45 61 51 9 14 28 13 62 -4z"/>
<path d="M2928 2245 c-21 -19 -45 -35 -53 -35 -9 0 -29 15 -46 32 -32 35 -39
28 -12 -12 22 -33 33 -40 65 -40 25 0 78 48 78 71 0 24 42 6 65 -29 14 -22 36
-45 49 -51 23 -13 23 -14 18 -149 -2 -76 -2 -135 0 -132 3 3 8 64 12 135 l6
130 -54 58 c-30 31 -63 57 -73 57 -10 0 -35 -16 -55 -35z"/>
<path d="M1738 2202 c-26 -57 -34 -120 -30 -249 l2 -53 35 0 c43 0 45 -13 5
-30 -16 -7 -46 -30 -66 -52 -36 -41 -54 -46 -35 -9 7 13 8 22 1 26 -6 3 -13
-1 -16 -10 -6 -14 -8 -14 -25 1 -18 17 -21 16 -47 -7 -15 -14 -40 -33 -56 -43
-27 -17 -29 -17 -55 7 -14 13 -46 37 -70 53 l-44 28 6 72 c8 91 10 95 57 124
22 14 40 27 40 30 0 4 -15 21 -33 38 l-33 32 -35 -16 c-19 -10 -48 -29 -65
-43 -17 -14 -52 -41 -77 -58 l-47 -33 0 -80 c0 -96 9 -104 77 -71 59 29 68 18
19 -25 l-39 -34 27 -35 c15 -19 35 -39 46 -45 11 -6 34 -25 52 -43 95 -94 256
-203 410 -277 96 -46 133 -55 108 -25 -6 7 -24 18 -40 25 -34 14 -51 54 -38
90 8 21 5 28 -16 45 -14 12 -26 29 -26 39 0 22 62 86 84 86 21 0 22 63 1 80
-8 7 -12 17 -8 23 4 6 12 34 19 63 11 49 10 54 -8 66 -24 16 -16 40 19 59 l26
14 -7 122 c-7 138 -11 153 -36 153 -11 0 -22 5 -25 10 -13 22 -31 7 -57 -48z
m82 -21 c5 -11 10 -60 10 -109 0 -86 -1 -90 -27 -107 -34 -23 -55 -11 -67 39
-10 38 5 140 25 178 13 24 46 23 59 -1z m-453 -72 c8 -8 5 -23 -13 -57 -13
-25 -24 -59 -24 -76 0 -17 -4 -37 -9 -45 -12 -18 -122 -54 -133 -43 -4 4 -9
30 -10 56 -2 44 1 51 34 80 74 63 117 92 139 95 3 1 10 -4 16 -10z m-34 -270
c12 -6 45 -29 73 -50 57 -44 84 -48 132 -19 39 24 55 25 85 5 22 -14 27 -12
82 30 82 61 90 58 91 -37 0 -77 0 -78 -37 -113 -44 -42 -53 -77 -32 -132 17
-46 12 -73 -12 -73 -44 0 -247 130 -331 211 -33 33 -70 66 -82 75 -34 24 -45
50 -31 77 11 19 28 36 37 37 2 0 13 -5 25 -11z"/>
<path d="M1926 2224 c-4 -9 -4 -19 -2 -21 8 -8 26 8 26 23 0 19 -16 18 -24 -2z"/>
<path d="M1453 2203 c-7 -2 -13 -11 -13 -18 0 -17 99 -114 118 -116 6 -1 17
-2 24 -3 6 -1 12 15 12 39 1 37 -3 42 -48 73 -46 31 -66 36 -93 25z"/>
<path d="M2071 2194 c0 -11 3 -14 6 -6 3 7 2 16 -1 19 -3 4 -6 -2 -5 -13z"/>
<path d="M1130 2168 c0 -47 13 -98 24 -98 7 0 27 15 45 34 l33 34 -35 26 c-42
32 -67 34 -67 4z"/>
<path d="M2395 2170 c-7 -11 5 -109 14 -114 3 -2 24 11 46 30 l40 34 -33 30
c-33 31 -56 38 -67 20z"/>
<path d="M2853 2118 c-20 -10 -23 -19 -23 -67 0 -31 -3 -80 -6 -108 -6 -48 -5
-53 13 -53 29 0 73 -38 73 -62 0 -11 -9 -36 -21 -54 -11 -19 -16 -34 -10 -34
23 0 59 85 64 155 8 96 -6 203 -30 220 -21 17 -30 17 -60 3z m46 -52 c17 -21
25 -100 12 -125 -14 -26 -25 -27 -51 -1 -24 24 -25 58 -6 105 16 38 27 43 45
21z"/>
<path d="M1476 2044 c-8 -22 -7 -137 2 -150 17 -26 53 -36 83 -24 33 14 38 27
38 91 -1 57 -5 63 -53 83 -48 20 -62 20 -70 0z m85 -58 c17 -36 -1 -81 -32
-81 -21 0 -24 5 -27 39 -2 21 -1 44 2 52 9 23 45 16 57 -10z"/>
<path d="M3091 1843 c-1 -13 -10 -24 -22 -28 -25 -8 -134 -105 -118 -105 7 0
31 17 55 38 24 20 55 46 70 57 18 14 25 27 21 40 -4 18 -5 18 -6 -2z"/>
<path d="M1252 1650 c0 -14 2 -19 5 -12 2 6 2 18 0 25 -3 6 -5 1 -5 -13z"/>
<path d="M2658 1630 c-36 -9 -36 -56 1 -107 38 -53 82 -76 124 -68 24 5 28 4
17 -4 -8 -6 -15 -18 -15 -28 0 -14 -9 -18 -43 -19 -23 -1 -42 2 -42 8 0 5 -14
21 -31 36 -32 26 -79 112 -79 145 0 23 -21 22 -113 -8 -43 -14 -82 -23 -86
-20 -5 3 -11 -1 -14 -9 -3 -8 -48 -34 -101 -59 -52 -25 -114 -58 -138 -75 -24
-16 -71 -43 -105 -60 -98 -50 -102 -45 92 -94 126 -31 345 -33 390 -3 17 11
34 25 38 32 4 7 13 13 18 13 6 0 23 12 38 28 47 47 91 74 91 57 0 -6 -53 -67
-84 -97 -16 -14 -17 -18 -5 -18 31 0 165 54 197 79 31 25 31 26 12 35 -31 14
-20 40 23 50 36 9 37 11 37 55 0 40 -5 49 -48 91 -46 44 -52 47 -100 46 -27 0
-61 -3 -74 -6z m120 -40 c42 -26 49 -46 26 -71 -29 -32 -83 -22 -111 20 -30
44 -29 59 5 64 15 2 32 5 37 5 6 1 25 -7 43 -18z m-228 -30 c20 -11 70 -105
70 -133 0 -19 -113 -121 -159 -143 -60 -29 -274 -18 -347 18 -35 16 -38 48 -7
64 13 6 31 18 40 27 33 29 340 175 371 177 7 0 22 -5 32 -10z"/>
<path d="M3275 1628 c-27 -5 -110 -23 -183 -39 -73 -16 -137 -29 -142 -29 -5
0 -25 14 -45 31 -46 41 -44 28 5 -31 43 -52 49 -80 26 -134 -18 -44 -111 -119
-137 -111 -12 4 -19 1 -19 -8 0 -7 -10 -19 -22 -25 -45 -23 -183 -69 -195 -65
-7 2 -21 -1 -32 -6 -13 -7 -22 -8 -26 -1 -4 6 -66 10 -155 10 -158 0 -324 14
-402 35 l-48 12 0 -58 c0 -38 5 -63 15 -72 13 -14 13 -20 0 -57 -8 -24 -15
-53 -15 -66 0 -13 -4 -24 -10 -24 -5 0 -10 11 -10 25 0 14 -7 42 -15 62 -11
25 -12 40 -5 47 5 5 10 40 10 77 l0 67 -87 -38 c-137 -59 -219 -83 -253 -77
-16 4 -30 3 -30 -2 0 -13 -39 -21 -114 -22 -48 -1 -66 -5 -63 -14 3 -6 -3 -47
-14 -91 -22 -91 -26 -214 -7 -214 13 0 122 74 150 102 27 27 39 23 96 -35 l52
-53 -1 -124 c-1 -203 -5 -220 -75 -292 -38 -39 -48 -53 -27 -40 17 12 42 22
55 22 27 0 102 -45 132 -78 11 -12 31 -22 46 -22 45 0 200 111 200 142 0 8 -5
6 -11 -5 -11 -18 -91 -72 -160 -107 l-42 -22 -41 40 c-22 22 -56 47 -73 56
-35 18 -42 33 -19 42 8 3 21 22 29 43 13 32 14 58 4 178 -6 77 -7 147 -4 157
4 9 21 23 39 31 18 7 50 27 72 44 47 37 62 38 95 7 23 -22 80 -53 179 -98 36
-16 30 -29 -18 -43 -14 -4 -45 -25 -70 -47 -25 -22 -65 -54 -90 -72 l-45 -32
-1 -64 c-1 -36 1 -47 3 -25 6 72 13 84 61 116 26 18 67 50 91 71 32 28 52 38
70 36 26 -3 26 -4 29 -101 2 -65 -3 -119 -13 -159 -8 -33 -15 -66 -15 -73 0
-19 111 -105 135 -105 16 1 14 4 -11 18 -17 9 -49 31 -73 47 -35 25 -41 34
-36 55 3 14 10 45 16 70 26 118 13 579 -18 653 -14 31 -14 40 -4 47 21 13 49
0 91 -42 38 -38 42 -40 70 -28 16 7 28 16 25 20 -3 4 2 13 10 20 21 17 19 29
-7 40 -21 8 -21 9 8 9 17 1 46 -4 64 -10 26 -9 34 -9 41 2 11 19 44 -1 45 -27
1 -31 14 -64 26 -64 6 0 32 8 58 17 42 15 50 15 65 3 16 -13 16 -15 -4 -32
-12 -9 -30 -15 -39 -12 -12 4 -13 3 -4 -3 10 -7 10 -25 3 -79 -10 -68 -19
-198 -26 -364 -3 -96 0 -104 63 -143 23 -15 42 -31 42 -35 0 -5 -22 -31 -50
-58 -27 -27 -52 -57 -55 -66 -13 -38 -57 -32 -116 16 -15 12 -34 26 -44 31
-17 10 -17 14 -1 78 21 85 28 322 13 510 -5 75 -13 137 -16 137 -3 0 -16 -8
-28 -18 -29 -22 -40 -97 -48 -327 -3 -93 -8 -180 -10 -191 -3 -14 5 -31 21
-47 24 -25 26 -30 19 -87 -6 -55 -28 -100 -60 -122 -7 -5 -7 -8 1 -8 5 0 23
14 39 30 37 38 54 38 116 -5 91 -62 120 -48 219 112 14 23 13 26 -15 49 -16
14 -40 33 -52 44 -27 22 -28 33 -7 54 45 45 156 -12 308 -157 32 -32 67 -57
77 -57 17 0 19 9 19 93 0 99 18 179 52 235 22 37 54 42 94 16 15 -10 29 -13
33 -8 5 5 11 74 14 154 13 352 127 534 432 691 111 57 91 77 -75 77 -52 0
-117 -5 -145 -10z m-262 -292 c-10 -19 -21 -36 -25 -36 -14 0 -9 16 12 40 11
13 20 28 20 33 0 6 2 8 5 5 3 -3 -2 -22 -12 -42z m31 -2 c3 -8 2 -12 -4 -9 -6
3 -10 10 -10 16 0 14 7 11 14 -7z m-34 -48 c0 -2 -7 -9 -15 -16 -13 -11 -14
-10 -9 4 5 14 24 23 24 12z m-1189 -86 c15 -9 19 -22 19 -65 0 -71 20 -153 38
-160 23 -8 38 13 56 77 15 53 15 60 0 98 -12 29 -14 44 -6 52 32 32 59 -32 82
-192 16 -116 12 -164 -17 -168 -24 -3 -99 32 -152 72 -46 34 -72 33 -141 -9
-32 -19 -67 -35 -78 -35 -12 0 -42 18 -67 40 -25 22 -54 40 -65 40 -10 0 -42
-16 -71 -35 -90 -61 -110 -41 -89 86 9 52 17 73 33 84 12 7 69 21 127 30 58 9
143 32 190 50 80 31 111 42 118 44 2 1 12 -4 23 -9z m805 -2 c5 -7 2 -9 -9 -5
-9 3 -18 1 -21 -6 -2 -7 -5 -4 -5 6 -1 19 24 23 35 5z m58 -4 c6 -15 4 -15
-11 -3 -10 7 -20 15 -22 16 -2 2 3 3 11 3 9 0 19 -7 22 -16z m-66 -129 c1 -25
-2 -53 -7 -64 -6 -10 -12 -33 -13 -49 -1 -17 -4 -29 -6 -27 -6 5 -24 -14 -46
-47 -10 -16 -27 -28 -38 -28 -18 0 -17 3 10 28 48 45 74 107 73 174 -1 71 22
83 27 13z m157 7 c-3 -3 -11 0 -18 7 -9 10 -8 11 6 5 10 -3 15 -9 12 -12z m39
-33 c-3 -5 0 -9 7 -9 21 0 3 -11 -27 -15 -25 -4 -26 -4 -10 6 14 9 16 13 5 20
-8 4 -20 3 -28 -4 -11 -9 -13 -9 -8 0 4 6 1 14 -5 17 -7 4 2 4 20 1 24 -3 31
-1 26 8 -5 8 -2 7 9 -2 9 -7 14 -17 11 -22z m56 6 c11 -13 10 -14 -4 -9 -9 3
-16 10 -16 15 0 13 6 11 20 -6z m90 -117 c0 -17 -18 2 -50 50 l-30 47 40 -44
c22 -24 40 -48 40 -53z m-87 57 c10 -14 14 -25 8 -25 -5 0 -11 5 -13 12 -2 6
-9 8 -16 4 -18 -11 8 -34 33 -28 17 5 18 3 8 -10 -15 -17 1 -40 22 -32 7 3 16
1 20 -5 3 -6 0 -11 -9 -11 -8 0 -22 -3 -32 -7 -11 -4 -15 -3 -10 5 3 6 1 14
-5 18 -8 4 -9 3 -5 -4 4 -7 2 -12 -4 -12 -6 0 -9 -4 -5 -9 3 -5 1 -12 -5 -16
-5 -3 -10 -1 -10 6 0 8 -4 8 -13 1 -18 -15 -17 29 2 51 16 20 2 23 -19 5 -8
-7 -6 -2 5 11 16 19 17 23 4 19 -9 -4 -16 -1 -16 7 0 7 6 11 14 8 7 -3 13 0
13 6 0 14 -33 14 -46 1 -7 -7 -11 -6 -11 4 0 8 4 13 8 10 4 -2 10 0 14 6 11
18 50 10 68 -15z m-603 -22 c16 -54 9 -385 -8 -406 -19 -22 -39 -11 -52 29 -9
25 -9 73 0 187 12 157 24 227 40 227 5 0 14 -17 20 -37z m685 -92 c3 -5 1 -12
-5 -16 -5 -3 -10 -1 -10 6 0 7 -6 4 -14 -7 -13 -16 -17 -17 -28 -5 -7 8 -8 11
-2 8 7 -4 14 0 18 8 6 17 32 20 41 6z m24 -35 c10 -12 8 -13 -8 -9 -12 3 -18
9 -15 14 7 12 10 11 23 -5z"/>
<path d="M2835 900 c-3 -6 1 -7 9 -4 18 7 21 14 7 14 -6 0 -13 -4 -16 -10z"/>
<path d="M1784 1569 c-8 -13 13 -29 37 -29 17 0 32 24 22 34 -11 10 -51 7 -59
-5z"/>
<path d="M1799 1454 c-10 -13 -10 -17 2 -25 22 -14 44 -6 47 19 4 27 -28 31
-49 6z"/>
<path d="M2237 1153 c-3 -5 3 -15 14 -22 18 -11 20 -10 17 5 -3 19 -23 30 -31
17z"/>
<path d="M1747 798 c-3 -13 0 -50 7 -83 l12 -59 49 46 c42 40 47 47 34 59 -34
32 -55 47 -75 53 -17 5 -23 2 -27 -16z m64 -39 c8 -16 8 -24 0 -32 -16 -16
-45 3 -49 32 -5 29 33 29 49 0z"/>
<path d="M1353 790 c-40 -24 -63 -68 -62 -117 l2 -38 6 43 c12 73 69 125 99
90 6 -8 14 -70 18 -138 5 -99 3 -138 -9 -185 -21 -77 -14 -84 8 -8 14 47 16
82 12 190 -5 108 -3 134 8 143 44 37 -28 53 -82 20z"/>
<path d="M1861 438 c-35 -16 -49 -18 -63 -9 -14 9 -18 8 -18 -3 0 -8 4 -17 9
-20 11 -7 84 18 114 39 29 20 11 18 -42 -7z"/>
<path d="M1132 398 c-16 -16 -15 -28 3 -28 8 0 15 2 15 4 0 2 3 11 6 20 7 19
-7 21 -24 4z"/>
<path d="M1336 164 c-8 -22 -8 -44 2 -44 4 0 7 14 8 30 1 34 -1 37 -10 14z"/>
<path d="M1370 90 c8 -5 24 -10 34 -10 26 0 18 6 -19 14 -22 5 -26 4 -15 -4z"/>
</g>
</svg>
